<mxfile host="65bd71144e">
    <diagram id="prometheus-slurm-sd-arch" name="Page-1">
        <mxGraphModel dx="1130" dy="830" grid="1" gridSize="10" guides="1" tooltips="1" connect="1" arrows="1" fold="1" page="1" pageScale="1" pageWidth="850" pageHeight="1100" math="0" shadow="0">
            <root>
                <mxCell id="0"/>
                <mxCell id="1" parent="0"/>
                <mxCell id="2" value="Prometheus" style="rounded=1;whiteSpace=wrap;html=1;fillColor=#e6522c;strokeColor=#333333;fontColor=#000000;" vertex="1" parent="1">
                    <mxGeometry x="50" y="100" width="150" height="80" as="geometry"/>
                </mxCell>
                <mxCell id="3" value="prometheus-slurm-sd" style="rounded=1;whiteSpace=wrap;html=1;fillColor=#f0f0f0;strokeColor=#333333;" vertex="1" parent="1">
                    <mxGeometry x="300" y="80" width="200" height="200" as="geometry"/>
                </mxCell>
                <mxCell id="4" value="Memory Cache&#xa;JSON formatted targets" style="rounded=1;whiteSpace=wrap;html=1;fillColor=#d9ead3;strokeColor=#333333;" vertex="1" parent="1">
                    <mxGeometry x="325" y="130" width="150" height="60" as="geometry"/>
                </mxCell>
                <mxCell id="5" value="HTTP SD Handler" style="rounded=1;whiteSpace=wrap;html=1;fillColor=#f0f0f0;strokeColor=#333333;" vertex="1" parent="1">
                    <mxGeometry x="325" y="200" width="150" height="60" as="geometry"/>
                </mxCell>
                <mxCell id="6" value="Slurm REST API&#xa;(slurmrestd)" style="rounded=1;whiteSpace=wrap;html=1;fillColor=#7eb5e6;strokeColor=#333333;" vertex="1" parent="1">
                    <mxGeometry x="600" y="100" width="150" height="80" as="geometry"/>
                </mxCell>
                <mxCell id="7" value="HTTP GET /targets" style="endArrow=classic;html=1;exitX=1;exitY=0.5;exitDx=0;exitDy=0;entryX=0;entryY=0.3;entryDx=0;entryDy=0;entryPerimeter=0;strokeColor=#666666;strokeWidth=2;" edge="1" parent="1" source="2" target="3">
                    <mxGeometry y="-10" width="50" height="50" relative="1" as="geometry">
                        <mxPoint x="200" y="140" as="sourcePoint"/>
                        <mxPoint x="300" y="140" as="targetPoint"/>
                        <mxPoint as="offset"/>
                    </mxGeometry>
                </mxCell>
                <mxCell id="8" value="JSON Response" style="endArrow=classic;html=1;exitX=0;exitY=0.4;exitDx=0;exitDy=0;exitPerimeter=0;entryX=1;entryY=0.75;entryDx=0;entryDy=0;strokeColor=#666666;strokeWidth=2;" edge="1" parent="1" source="3" target="2">
                    <mxGeometry y="20" width="50" height="50" relative="1" as="geometry">
                        <mxPoint x="290" y="160" as="sourcePoint"/>
                        <mxPoint x="240" y="160" as="targetPoint"/>
                        <mxPoint as="offset"/>
                    </mxGeometry>
                </mxCell>
                <mxCell id="9" value="Periodic Requests&#xa;(e.g. every 5 min)" style="endArrow=classic;html=1;exitX=1;exitY=0.2;exitDx=0;exitDy=0;exitPerimeter=0;entryX=0;entryY=0.25;entryDx=0;entryDy=0;strokeColor=#666666;strokeWidth=2;" edge="1" parent="1" source="3" target="6">
                    <mxGeometry y="-10" width="50" height="50" relative="1" as="geometry">
                        <mxPoint x="500" y="120" as="sourcePoint"/>
                        <mxPoint x="600" y="120" as="targetPoint"/>
                        <mxPoint as="offset"/>
                    </mxGeometry>
                </mxCell>
                <mxCell id="10" value="Node Info (JSON)" style="endArrow=classic;html=1;exitX=0;exitY=0.75;exitDx=0;exitDy=0;entryX=1;entryY=0.4;entryDx=0;entryDy=0;entryPerimeter=0;strokeColor=#666666;strokeWidth=2;" edge="1" parent="1" source="6" target="3">
                    <mxGeometry y="20" width="50" height="50" relative="1" as="geometry">
                        <mxPoint x="590" y="160" as="sourcePoint"/>
                        <mxPoint x="540" y="160" as="targetPoint"/>
                        <mxPoint as="offset"/>
                    </mxGeometry>
                </mxCell>
                <mxCell id="11" value="Scheduled Updates" style="rounded=1;whiteSpace=wrap;html=1;fillColor=#f0f0f0;strokeColor=#333333;" vertex="1" parent="1">
                    <mxGeometry x="300" y="320" width="200" height="60" as="geometry"/>
                </mxCell>
                <mxCell id="12" value="" style="endArrow=classic;html=1;exitX=0.5;exitY=0;exitDx=0;exitDy=0;entryX=0.5;entryY=1;entryDx=0;entryDy=0;strokeColor=#666666;strokeWidth=2;" edge="1" parent="1" source="11" target="3">
                    <mxGeometry width="50" height="50" relative="1" as="geometry">
                        <mxPoint x="400" y="320" as="sourcePoint"/>
                        <mxPoint x="400" y="290" as="targetPoint"/>
                    </mxGeometry>
                </mxCell>
                <mxCell id="13" value="Configuration File" style="rounded=1;whiteSpace=wrap;html=1;fillColor=#f0f0f0;strokeColor=#333333;" vertex="1" parent="1">
                    <mxGeometry x="300" y="400" width="200" height="60" as="geometry"/>
                </mxCell>
                <mxCell id="14" value="" style="endArrow=classic;html=1;exitX=0.5;exitY=0;exitDx=0;exitDy=0;entryX=0.5;entryY=1;entryDx=0;entryDy=0;strokeColor=#666666;strokeWidth=2;" edge="1" parent="1" source="13" target="11">
                    <mxGeometry width="50" height="50" relative="1" as="geometry">
                        <mxPoint x="400" y="400" as="sourcePoint"/>
                        <mxPoint x="400" y="380" as="targetPoint"/>
                    </mxGeometry>
                </mxCell>
                <mxCell id="15" value="Slurm Cluster&#xa;Nodes (partition01)&#xa;Nodes (partition02)&#xa;Nodes (partition03)" style="rounded=1;whiteSpace=wrap;html=1;fillColor=#7eb5e6;strokeColor=#333333;align=center;" vertex="1" parent="1">
                    <mxGeometry x="600" y="220" width="150" height="120" as="geometry"/>
                </mxCell>
                <mxCell id="16" value="" style="endArrow=none;html=1;curved=1;exitX=0;exitY=0.5;exitDx=0;exitDy=0;entryX=0;entryY=0.5;entryDx=0;entryDy=0;dashed=1;strokeColor=#666666;strokeWidth=2;" edge="1" parent="1" source="15" target="6">
                    <mxGeometry width="50" height="50" relative="1" as="geometry">
                        <mxPoint x="600" y="270" as="sourcePoint"/>
                        <mxPoint x="600" y="140" as="targetPoint"/>
                        <Array as="points">
                            <mxPoint x="570" y="270"/>
                            <mxPoint x="570" y="140"/>
                        </Array>
                    </mxGeometry>
                </mxCell>
                <mxCell id="17" value="prometheus-slurm-sd Architecture" style="text;html=1;strokeColor=none;fillColor=none;align=center;verticalAlign=middle;whiteSpace=wrap;rounded=0;fontSize=20;fontStyle=1" vertex="1" parent="1">
                    <mxGeometry x="200" y="30" width="400" height="30" as="geometry"/>
                </mxCell>
            </root>
        </mxGraphModel>
    </diagram>
</mxfile>
